# xmcd
#
# Track frame offsets: 
#        150
#        15171
#        32017
#        50899
#        68642
#        86624
#        103829
#        121816
#        136666
#        155073
#        172398
#        185518
#        202217
#        217569
#
# Disc length: 3139 seconds
#
# Revision: 0
# Processed by: cddbd v1.5.2PL0 Copyright (c) Steve Scherf et al.
# Submitted via: ExactAudioCopy v0.99pb4
#
DISCID=c10c410e
DTITLE=ฝน  ธนสุนทร - ฝน ซูเปอร์ฮิตลูกทุ่ง 2
DYEAR=2008
DGENRE=Country
TTITLE0=ใจอ่อน
TTITLE1=ฮักอ้ายโจงโปง
TTITLE2=หนึ่งกำลังใจ
TTITLE3=ทิ้งน้องไว้หนองหาน
TTITLE4=ค่อยๆปล่อยมือ
TTITLE5=ขอใช้สิทธิ์
TTITLE6=ใครมีปืนเถื่อน
TTITLE7=คำรักอย่าฝากบอก
TTITLE8=รักฉันแล้วรักใครไม่ได้
TTITLE9=ต้อนรับกลับห้องใจ
TTITLE10=จะรักใครดี
TTITLE11=รักมา 5 โมงเย็น
TTITLE12=รักแท้หรือแค่กิ๊ก
TTITLE13=ส่งข่าวทิดมั่น
EXTD=
EXTT0=
EXTT1=
EXTT2=
EXTT3=
EXTT4=
EXTT5=
EXTT6=
EXTT7=
EXTT8=
EXTT9=
EXTT10=
EXTT11=
EXTT12=
EXTT13=
PLAYORDER=
